<svg width="64" height="20" viewBox="0 0 64 20" fill="none" xmlns="http://www.w3.org/2000/svg">
<path d="M3.154 4.519C3.52133 3.417 4.104 2.866 4.902 2.866C5.53533 2.866 5.97867 3.246 6.232 4.006C6.46 4.67733 6.75767 6.324 7.125 8.946C7.51767 8.89533 7.73933 8.87 7.79 8.87C8.17 8.87 8.36 9.06 8.36 9.44C8.36 9.592 8.303 9.71867 8.189 9.82C8.075 9.92133 7.942 9.98467 7.79 10.01L7.296 10.067C7.42267 11.1183 7.486 11.9037 7.486 12.423C7.486 12.9423 7.353 13.335 7.087 13.601C6.821 13.867 6.51067 14 6.156 14C5.814 14 5.48467 13.8543 5.168 13.563C4.864 13.2717 4.62333 12.936 4.446 12.556C4.066 11.7327 3.876 11.1183 3.876 10.713C3.876 9.94033 4.579 9.40833 5.985 9.117C5.59233 6.43167 5.33267 4.91167 5.206 4.557C5.092 4.18967 4.99067 4.006 4.902 4.006C4.64867 4.006 4.427 4.291 4.237 4.861C3.65433 6.609 3.268 7.863 3.078 8.623C2.888 9.383 2.68533 10.2127 2.47 11.112C2.25467 12.0113 2.09 12.6763 1.976 13.107C1.87467 13.525 1.77967 13.7783 1.691 13.867C1.615 13.9557 1.49467 14 1.33 14C0.95 14 0.76 13.81 0.76 13.43L0.798 13.202C0.962667 12.5433 1.15267 11.7643 1.368 10.865C1.596 9.96567 1.76067 9.30067 1.862 8.87C2.166 7.67933 2.59667 6.229 3.154 4.519ZM6.156 10.257C5.396 10.4217 5.016 10.6053 5.016 10.808C5.016 11.036 5.16167 11.435 5.453 12.005C5.757 12.575 5.99133 12.86 6.156 12.86C6.28267 12.86 6.346 12.651 6.346 12.233C6.346 11.8023 6.28267 11.1437 6.156 10.257ZM11.9789 12.556C12.1816 12.556 12.3906 12.6447 12.6059 12.822C12.8212 12.9993 12.9289 13.1893 12.9289 13.392C12.9289 13.5947 12.8402 13.7467 12.6629 13.848C12.4982 13.9493 12.3146 14 12.1119 14C11.9092 14 11.7382 13.9113 11.5989 13.734C11.4722 13.544 11.4089 13.3413 11.4089 13.126C11.4089 12.746 11.5989 12.556 11.9789 12.556ZM17.3056 14C16.9256 14 16.7356 13.81 16.7356 13.43C16.7356 13.05 16.9256 12.86 17.3056 12.86C19.8389 12.86 21.5806 12.67 22.5306 12.29C22.9739 12.1127 23.1956 11.929 23.1956 11.739C23.1956 11.549 23.0373 11.378 22.7206 11.226C22.4166 11.074 21.8973 10.8777 21.1626 10.637C20.4406 10.3963 19.8896 10.1937 19.5096 10.029C17.6603 9.25633 16.7356 8.08467 16.7356 6.514C16.7356 5.488 17.1789 4.62667 18.0656 3.93C18.9523 3.22067 20.0163 2.866 21.2576 2.866C21.9416 2.866 22.5116 3.06867 22.9676 3.474C23.4363 3.87933 23.6706 4.367 23.6706 4.937C23.6706 5.507 23.4489 6.01367 23.0056 6.457C22.5623 6.90033 22.2583 7.122 22.0936 7.122C21.7136 7.122 21.5236 6.932 21.5236 6.552C21.5236 6.38733 21.6883 6.14033 22.0176 5.811C22.3596 5.469 22.5306 5.20933 22.5306 5.032C22.5306 4.728 22.4103 4.481 22.1696 4.291C21.9416 4.101 21.6439 4.006 21.2766 4.006C20.3393 4.006 19.5349 4.24667 18.8636 4.728C18.2049 5.19667 17.8756 5.76667 17.8756 6.438C17.8756 7.10933 18.0593 7.635 18.4266 8.015C18.8066 8.395 19.2309 8.68633 19.6996 8.889C20.1809 9.079 20.6623 9.25633 21.1436 9.421C21.6249 9.573 22.0239 9.71233 22.3406 9.839C22.6699 9.953 22.9993 10.0987 23.3286 10.276C23.9999 10.6433 24.3356 11.1247 24.3356 11.72C24.3356 12.4927 23.7783 13.069 22.6636 13.449C21.5616 13.8163 19.7756 14 17.3056 14ZM29.4935 4.576C29.6962 4.576 29.9052 4.671 30.1205 4.861C30.3358 5.03833 30.4435 5.22833 30.4435 5.431C30.4435 5.621 30.3548 5.76667 30.1775 5.868C30.0128 5.96933 29.8292 6.02 29.6265 6.02C29.4238 6.02 29.2528 5.93133 29.1135 5.754C28.9868 5.564 28.9235 5.36133 28.9235 5.146C28.9235 4.766 29.1135 4.576 29.4935 4.576ZM27.7835 11.644C27.0742 12.404 26.3522 12.9487 25.6175 13.278C25.3895 13.3793 25.2058 13.43 25.0665 13.43C24.6865 13.43 24.4965 13.24 24.4965 12.86C24.4965 12.6193 24.6865 12.423 25.0665 12.271C25.2692 12.195 25.5352 12.043 25.8645 11.815C26.2065 11.587 26.4345 11.416 26.5485 11.302C26.6625 11.188 26.8588 10.979 27.1375 10.675C27.4288 10.371 27.6568 10.143 27.8215 9.991C27.9862 9.82633 28.2078 9.66167 28.4865 9.497C28.7778 9.33233 29.0438 9.25 29.2845 9.25C29.7785 9.25 30.1585 9.42733 30.4245 9.782C30.6905 10.1367 30.8488 10.5293 30.8995 10.96C31.0388 12.1 31.2605 12.67 31.5645 12.67C31.8052 12.67 32.1155 12.6067 32.4955 12.48C32.8755 12.3533 33.0845 12.29 33.1225 12.29C33.5025 12.29 33.6925 12.48 33.6925 12.86C33.6925 13.1387 33.5025 13.3413 33.1225 13.468C32.4385 13.696 31.8812 13.81 31.4505 13.81C31.0325 13.81 30.6905 13.6327 30.4245 13.278C30.1585 12.9233 30.0002 12.5307 29.9495 12.1C29.8102 10.96 29.5885 10.39 29.2845 10.39C29.1198 10.39 28.9298 10.4977 28.7145 10.713C28.5118 10.9157 28.3472 11.0803 28.2205 11.207C28.0938 11.321 27.9482 11.4667 27.7835 11.644ZM45.091 13.468C44.407 13.696 43.875 13.81 43.495 13.81C43.115 13.81 42.8173 13.6707 42.602 13.392C42.3867 13.1133 42.1903 12.6383 42.013 11.967C41.8483 11.2957 41.7217 10.96 41.633 10.96C41.3037 10.96 40.9553 11.4667 40.588 12.48C40.4487 12.86 40.2207 13.2083 39.904 13.525C39.5873 13.8417 39.1883 14 38.707 14C38.2383 14 37.871 13.791 37.605 13.373C37.339 12.955 37.1807 12.499 37.13 12.005C37.092 11.511 37.0287 11.055 36.94 10.637C36.8513 10.219 36.7057 10.01 36.503 10.01C36.3637 10.01 36.2623 10.048 36.199 10.124C36.1357 10.2 36.0787 10.276 36.028 10.352C35.99 10.4153 35.9457 10.485 35.895 10.561C35.857 10.6243 35.8063 10.713 35.743 10.827C35.6923 10.941 35.629 11.0613 35.553 11.188C35.2997 11.6313 35.097 11.9607 34.945 12.176C34.641 12.6573 34.1913 13.0247 33.596 13.278C33.368 13.3793 33.1843 13.43 33.045 13.43C32.665 13.43 32.475 13.24 32.475 12.86C32.475 12.6193 32.6777 12.423 33.083 12.271C33.4883 12.119 33.7733 11.9037 33.938 11.625C34.1153 11.3337 34.3117 11.0043 34.527 10.637C34.7423 10.2697 34.888 10.0227 34.964 9.896C35.0527 9.76933 35.1603 9.61733 35.287 9.44C35.4137 9.25 35.5277 9.12967 35.629 9.079C35.895 8.93967 36.1863 8.87 36.503 8.87C37.0223 8.87 37.415 9.079 37.681 9.497C37.947 9.915 38.099 10.371 38.137 10.865C38.1877 11.359 38.2573 11.815 38.346 12.233C38.4347 12.651 38.5803 12.86 38.783 12.86C38.9857 12.86 39.1757 12.7017 39.353 12.385C39.543 12.0683 39.7077 11.72 39.847 11.34C39.9863 10.96 40.208 10.6117 40.512 10.295C40.8287 9.97833 41.2023 9.82 41.633 9.82C41.9623 9.82 42.203 9.90233 42.355 10.067C42.507 10.219 42.6147 10.3393 42.678 10.428C42.754 10.5167 42.8173 10.6497 42.868 10.827C42.9313 11.0043 42.9757 11.1373 43.001 11.226C43.0263 11.302 43.0643 11.4413 43.115 11.644C43.267 12.3407 43.4063 12.6827 43.533 12.67C43.7737 12.67 44.084 12.6067 44.464 12.48C44.844 12.3533 45.053 12.29 45.091 12.29C45.471 12.29 45.661 12.48 45.661 12.86C45.661 13.1387 45.471 13.3413 45.091 13.468ZM48.8318 14.513C48.7558 14.4117 48.5278 14.1203 48.1478 13.639C47.7678 13.1577 47.5081 12.822 47.3688 12.632C47.2421 12.4293 47.0584 12.138 46.8178 11.758C46.3998 11.0993 46.1908 10.428 46.1908 9.744C46.1908 9.06 46.3744 8.45833 46.7418 7.939C47.1218 7.41967 47.5968 7.16 48.1668 7.16C48.7368 7.16 49.2371 7.331 49.6678 7.673C50.0984 8.015 50.3834 8.50267 50.5228 9.136C50.5481 9.23733 50.5608 9.33867 50.5608 9.44C50.5608 9.82 50.3708 10.01 49.9908 10.01C49.7121 10.01 49.5221 9.82 49.4208 9.44C49.2434 8.68 48.8634 8.3 48.2808 8.3C47.9641 8.3 47.7234 8.45833 47.5588 8.775C47.4068 9.079 47.3308 9.383 47.3308 9.687C47.3308 9.991 47.3688 10.2633 47.4448 10.504C47.5334 10.7447 47.6728 11.0233 47.8628 11.34C48.0654 11.644 48.2301 11.8847 48.3568 12.062C48.6988 12.5433 49.1484 13.1197 49.7058 13.791C50.5418 13.1703 51.3841 12.7143 52.2328 12.423C52.4988 12.3343 52.6508 12.29 52.6888 12.29C53.0688 12.29 53.2588 12.48 53.2588 12.86C53.2588 13.1387 53.0688 13.3413 52.6888 13.468C51.9414 13.7087 51.1624 14.1267 50.3518 14.722C50.9471 15.6467 51.2448 16.4257 51.2448 17.059C51.2448 17.6923 50.9914 18.3257 50.4848 18.959C49.9781 19.605 49.4271 19.928 48.8318 19.928C48.2364 19.928 47.7424 19.7253 47.3498 19.32C46.9571 18.9147 46.7608 18.408 46.7608 17.8C46.7608 16.8627 47.4511 15.767 48.8318 14.513ZM49.4778 15.444C48.4264 16.432 47.9008 17.2173 47.9008 17.8C47.9008 18.104 47.9831 18.3447 48.1478 18.522C48.3124 18.6993 48.5341 18.788 48.8128 18.788C49.1041 18.788 49.3891 18.579 49.6678 18.161C49.9591 17.743 50.1048 17.344 50.1048 16.964C50.1048 16.5967 49.8958 16.09 49.4778 15.444ZM63.5262 12.86C63.5262 13.3667 62.9435 13.62 61.7782 13.62C61.2335 13.62 60.8092 13.4997 60.5052 13.259C60.2139 13.0183 60.0682 12.6003 60.0682 12.005C60.0682 11.4097 60.0175 10.8967 59.9162 10.466C59.8149 10.0353 59.6755 9.82 59.4982 9.82C58.9662 9.82 58.4595 10.314 57.9782 11.302C57.7755 11.7073 57.5602 12.119 57.3322 12.537C57.1042 12.9423 56.8002 13.2907 56.4202 13.582C56.0529 13.8607 55.6222 14 55.1282 14C53.9882 14 53.4182 12.898 53.4182 10.694C53.4182 9.11067 53.5892 7.57167 53.9312 6.077C54.2859 4.58233 54.7735 3.35367 55.3942 2.391C56.0275 1.41567 56.6925 0.928 57.3892 0.928C58.0859 0.928 58.6115 1.18133 58.9662 1.688C59.3209 2.19467 59.4982 2.85333 59.4982 3.664C59.4982 4.462 59.2702 5.25367 58.8142 6.039C58.3709 6.81167 57.8262 7.43867 57.1802 7.92C56.8635 8.17333 56.6229 8.3 56.4582 8.3C56.0782 8.3 55.8882 8.11 55.8882 7.73C55.8882 7.578 56.1035 7.33733 56.5342 7.008C56.9649 6.67867 57.3765 6.21 57.7692 5.602C58.1619 4.98133 58.3582 4.25933 58.3582 3.436C58.3582 3.094 58.2822 2.78367 58.1302 2.505C57.9782 2.21367 57.7375 2.068 57.4082 2.068C57.0282 2.068 56.6165 2.467 56.1732 3.265C55.7425 4.05033 55.3625 5.127 55.0332 6.495C54.7165 7.863 54.5582 9.269 54.5582 10.713C54.5582 12.1443 54.7482 12.86 55.1282 12.86C55.6602 12.86 56.1669 12.366 56.6482 11.378C56.8509 10.9727 57.0662 10.5673 57.2942 10.162C57.5222 9.744 57.8199 9.39567 58.1872 9.117C58.5672 8.82567 59.0042 8.68 59.4982 8.68C60.6382 8.68 61.2082 9.75667 61.2082 11.91C61.2082 12.29 61.3919 12.48 61.7592 12.48C62.1392 12.48 62.4242 12.4483 62.6142 12.385C62.8042 12.3217 62.9182 12.29 62.9562 12.29C63.3362 12.29 63.5262 12.48 63.5262 12.86Z" fill="black"/>
</svg>
