<svg width="611" height="238" viewBox="0 0 611 238" fill="none" xmlns="http://www.w3.org/2000/svg">
<path d="M61.5734 161C46.5734 161 35.5068 157.467 28.3734 150.4C21.3068 143.267 17.7734 132.2 17.7734 117.2V71.4C17.7734 56.2667 21.3068 45.1667 28.3734 38.1C35.4401 31.0333 46.4401 27.5333 61.3734 27.6H85.5734C97.9734 27.6 107.373 30.2 113.773 35.4C120.173 40.5333 123.84 48.6667 124.773 59.8C125.107 62.2667 124.64 64.1667 123.373 65.5C122.107 66.7667 120.24 67.4 117.773 67.4C113.307 67.4 110.74 64.9333 110.073 60C109.473 53.2 107.307 48.5667 103.573 46.1C99.8401 43.5667 93.8401 42.3 85.5734 42.3H61.3734C54.1068 42.3 48.3734 43.2 44.1734 45C39.9734 46.7333 36.9734 49.7333 35.1734 54C33.3734 58.2 32.4734 64 32.4734 71.4V117.2C32.4734 124.533 33.3734 130.333 35.1734 134.6C36.9734 138.8 39.9734 141.8 44.1734 143.6C48.4401 145.4 54.2401 146.3 61.5734 146.3H85.5734C93.8401 146.3 99.8401 145.067 103.573 142.6C107.307 140.067 109.473 135.4 110.073 128.6C110.74 123.667 113.307 121.2 117.773 121.2C120.24 121.2 122.107 121.867 123.373 123.2C124.64 124.467 125.107 126.333 124.773 128.8C123.84 140 120.173 148.167 113.773 153.3C107.373 158.433 97.9734 161 85.5734 161H61.5734ZM166.383 161C161.449 161 158.983 158.533 158.983 153.6V35C158.983 30.0667 161.449 27.6 166.383 27.6C169.649 27.6 172.349 29.2 174.483 32.4L222.583 105.1L219.383 105.6L267.683 32.4C269.683 29.2 272.649 27.6 276.583 27.6C280.649 27.6 282.683 30.0667 282.683 35V153.6C282.683 158.533 280.249 161 275.383 161C270.449 161 267.983 158.533 267.983 153.6V49.7L272.483 51.2L229.083 115.9C226.949 119.033 223.983 120.6 220.183 120.6C217.383 120.6 214.916 119.033 212.783 115.9L169.383 51.2L173.683 52.5V153.6C173.683 158.533 171.249 161 166.383 161ZM362.65 161C360.25 161 358.417 160.4 357.15 159.2C355.883 157.933 355.25 156.1 355.25 153.7V42.4H315.25C312.85 42.4 311.017 41.8 309.75 40.6C308.483 39.3333 307.85 37.5 307.85 35.1C307.85 32.7 308.483 30.8667 309.75 29.6C311.017 28.3333 312.85 27.7 315.25 27.7H410.05C412.45 27.7 414.25 28.3333 415.45 29.6C416.717 30.8667 417.35 32.7 417.35 35.1C417.35 37.5 416.717 39.3333 415.45 40.6C414.25 41.8 412.45 42.4 410.05 42.4H369.95V153.7C369.95 155.967 369.317 157.767 368.05 159.1C366.783 160.367 364.983 161 362.65 161Z" fill="white"/>
<path d="M436.961 160.3C432.294 158.433 430.894 155.2 432.761 150.6L481.061 33.4C482.728 29.5333 485.461 27.6 489.261 27.6H489.761C493.561 27.8 496.161 29.7333 497.561 33.4L546.361 150.6C548.228 155.2 546.894 158.433 542.361 160.3C537.761 162.1 534.561 160.767 532.761 156.3L521.061 128.3H457.761L446.461 156.3C444.594 160.833 441.428 162.167 436.961 160.3ZM463.561 113.6H515.061L488.961 50.9L463.561 113.6ZM581.844 161C579.377 161 577.51 160.4 576.244 159.2C575.044 157.933 574.444 156.067 574.444 153.6V35.1C574.444 32.5667 575.044 30.7 576.244 29.5C577.51 28.3 579.377 27.7 581.844 27.7C584.31 27.7 586.144 28.3 587.344 29.5C588.544 30.7 589.144 32.5667 589.144 35.1V153.6C589.144 156.067 588.544 157.933 587.344 159.2C586.144 160.4 584.31 161 581.844 161Z" fill="#00C3D1"/>
<path d="M590.318 8.65812C590.254 8.62062 590.189 8.58966 590.123 8.56023C590.087 8.54051 590.046 8.52355 590.009 8.50825C589.942 8.47305 589.874 8.44149 589.807 8.40918L589.438 8.2496C589.37 8.21987 589.303 8.19044 589.232 8.16483C589.101 8.10732 588.962 8.05959 588.83 8.00361C588.772 7.98218 588.717 7.95923 588.656 7.9401C588.409 7.84309 588.194 7.76916 587.975 7.70483C587.816 7.65386 587.658 7.60501 587.493 7.56075C587.436 7.54115 587.375 7.52385 587.316 7.50502L586.877 7.39019C586.825 7.37801 586.768 7.36053 586.713 7.34882C586.523 7.29973 586.329 7.25915 586.134 7.21672C586.127 7.21516 586.119 7.21327 586.112 7.2107V7.2107C585.851 7.13778 585.594 7.09159 585.335 7.07232L585.328 7.07114C585.181 7.04549 585.034 7.02089 584.883 7.00119L584.702 6.97572C584.507 6.95072 584.312 6.92677 584.114 6.91038C584.11 6.91007 584.106 6.91069 584.103 6.91047V6.91047C584.101 6.9104 584.1 6.91049 584.099 6.91037L584.002 6.90121C583.826 6.88498 583.65 6.87058 583.476 6.86406L583.263 6.84849C583.121 6.8415 582.979 6.84105 582.836 6.83665L582.613 6.83056C582.461 6.82757 582.304 6.8313 582.152 6.83197C582.096 6.83227 582.039 6.83257 581.984 6.83576L581.935 6.83359L581.498 6.85373L581.31 6.86082C581.082 6.87374 580.861 6.89226 580.639 6.91078C580.579 6.92068 580.517 6.92846 580.457 6.93288C580.296 6.94986 580.129 6.96885 579.97 6.99189C579.881 7.0018 579.793 7.01853 579.704 7.03315C579.595 7.04574 579.484 7.06154 579.371 7.07785C579.365 7.07865 579.36 7.07997 579.354 7.08169C579.33 7.08926 579.309 7.09457 579.286 7.09755C579.284 7.09785 579.282 7.09959 579.282 7.10184V7.10184C579.282 7.10394 579.28 7.10561 579.278 7.10603C579.233 7.11504 579.189 7.12167 579.144 7.12902C578.972 7.15731 578.796 7.1926 578.616 7.23278C578.583 7.24056 578.548 7.24987 578.51 7.25494C578.309 7.29842 578.111 7.34508 577.91 7.39769C577.866 7.41312 577.815 7.42267 577.768 7.43569C577.587 7.485 577.4 7.53631 577.217 7.59003L577.15 7.60924C576.949 7.67127 576.752 7.73388 576.551 7.80351C576.505 7.82047 576.456 7.83503 576.409 7.85352C576.204 7.92438 575.998 7.98188 575.805 8.07335C574.238 8.82631 572.921 9.65903 571.815 10.5388C569.649 12.2619 573.369 13.9301 575.914 12.8408V12.8408C576.106 12.7595 576.309 12.6931 576.511 12.6209C576.794 12.517 577.081 12.4216 577.37 12.3348L577.248 12.3768L577.332 12.3547C577.51 12.2994 577.688 12.2531 577.867 12.2053C577.912 12.195 577.957 12.1832 578.001 12.1698L578.015 12.1646C578.215 12.1145 578.412 12.0686 578.61 12.0267C578.65 12.0136 578.688 12.0085 578.73 11.9975C578.964 11.9464 579.199 11.9 579.434 11.8584L579.242 11.8994C579.292 11.8887 579.343 11.88 579.394 11.8734C579.527 11.848 579.664 11.8291 579.797 11.8084C579.897 11.79 579.997 11.7746 580.097 11.7623L580.068 11.767C580.234 11.7441 580.403 11.7265 580.57 11.7038C580.624 11.7032 580.681 11.6946 580.739 11.688C580.993 11.6627 581.248 11.6426 581.503 11.628L581.408 11.6359C581.472 11.6312 581.537 11.6289 581.602 11.629L581.593 11.6293C581.757 11.617 581.921 11.6098 582.086 11.6078C582.139 11.6051 582.19 11.6068 582.245 11.6054C582.415 11.6009 582.586 11.6003 582.756 11.6036L582.717 11.604C582.788 11.6078 582.86 11.6073 582.933 11.6078C583.079 11.6136 583.223 11.6154 583.371 11.6243L583.568 11.6336C583.778 11.6433 583.987 11.6581 584.196 11.6778L584.198 11.6781L584.806 11.7462L584.984 11.7693C585.134 11.7945 585.283 11.8139 585.435 11.8365L585.614 11.8682C585.802 11.8976 585.99 11.9316 586.176 11.97V11.97C586.184 11.9719 586.192 11.9731 586.2 11.9736L586.204 11.9739C586.212 11.9744 586.221 11.9756 586.229 11.9774C586.426 12.0188 586.622 12.0627 586.818 12.1092C586.87 12.1213 586.922 12.1372 586.977 12.1507L587.428 12.2684C587.635 12.3262 587.841 12.3878 588.045 12.453L588.131 12.4818C591.943 13.7055 595.367 16.3896 597.081 19.9835C597.253 20.3447 598.22 20.2195 598.236 19.8197V19.8197C598.135 14.9721 594.815 10.9852 590.618 8.80941C590.518 8.75402 590.418 8.70698 590.318 8.65812Z" fill="#00C3D1"/>
<path d="M583.958 18.2428L583.794 18.2163C583.589 18.187 583.384 18.1632 583.176 18.1409L583.15 18.1386C582.942 18.1181 582.714 18.1038 582.484 18.0958L582.45 18.0949C582.397 18.0966 582.345 18.0902 582.293 18.0911C582.062 18.0838 581.834 18.0826 581.6 18.086L581.577 18.0879C581.477 18.0877 581.376 18.0948 581.268 18.1017C581.225 18.1041 581.173 18.1032 581.127 18.1071C580.987 18.1149 580.85 18.1254 580.712 18.1365C580.666 18.1402 580.619 18.1446 580.574 18.1544V18.1544C580.437 18.165 580.293 18.1839 580.157 18.205C580.107 18.2091 580.061 18.2177 580.011 18.2236C579.915 18.2399 579.818 18.2533 579.725 18.2663L579.68 18.2759C579.487 18.3094 579.294 18.3493 579.105 18.388C579.059 18.4003 579.02 18.4108 578.979 18.4182C578.825 18.4523 578.67 18.4901 578.521 18.5305C578.455 18.5508 578.39 18.5656 578.329 18.5857C578.192 18.6235 578.053 18.6683 577.919 18.7086L577.737 18.7681C577.549 18.8321 577.347 18.8829 577.165 18.9762C576.019 19.5503 575.054 20.1717 574.243 20.8202C572.545 22.1787 575.213 23.2113 577.237 22.4167V22.4167C577.45 22.3318 577.665 22.2539 577.882 22.1829L577.81 22.2096C577.87 22.1866 577.926 22.1704 577.985 22.15C578.123 22.1085 578.262 22.0637 578.397 22.0256L578.591 21.9726C578.743 21.9345 578.896 21.8917 579.047 21.8591C579.095 21.849 579.135 21.8359 579.174 21.8319C579.37 21.7914 579.567 21.7492 579.762 21.7143L580.061 21.6699L580.233 21.6424C580.367 21.6229 580.495 21.6108 580.627 21.5974C580.658 21.5916 580.689 21.5877 580.721 21.5859C580.721 21.5859 580.721 21.5863 580.721 21.5864V21.5864C580.721 21.5865 580.721 21.5869 580.721 21.5869C580.883 21.5757 581.047 21.5594 581.206 21.5524C581.256 21.5465 581.307 21.5471 581.356 21.5438L581.679 21.5276C581.908 21.5234 582.139 21.5288 582.369 21.5296C582.425 21.5358 582.477 21.5375 582.529 21.5413C585.012 21.6368 587.492 22.4307 589.481 23.9246C591.556 25.472 593.049 27.814 593.295 30.4153L593.256 27.5808C593.185 24.0684 590.828 21.0171 587.771 19.4687C587.209 19.1807 586.696 18.9659 586.171 18.7868C585.68 18.6159 585.12 18.404 584.598 18.3591C584.39 18.3114 584.177 18.2762 583.958 18.2428Z" fill="#00C3D1"/>
<path d="M588.886 33.8553C588.822 31.7531 587.645 29.9399 585.858 28.8687C583.961 27.731 581.59 27.4785 579.475 28.0787C579.388 28.102 579.305 28.1279 579.216 28.1538L579.103 28.1926C578.983 28.2323 578.859 28.2674 578.743 28.3179C573.479 30.7808 574.6 34.9519 574.612 35.6762C574.564 33.2986 576.131 31.5801 578.792 30.4871C579.024 30.3925 579.261 30.312 579.503 30.2462L579.46 30.2598C579.755 30.1706 580.055 30.0985 580.359 30.0437L580.306 30.0548C580.892 29.9528 581.429 29.9123 581.965 29.9247C585.102 29.993 588.478 32.011 588.89 35.353L588.886 33.8553Z" fill="#00C3D1"/>
<path d="M26.0617 237C24.8577 237 24.2557 236.398 24.2557 235.194V226.422L14.4087 210.727C13.8067 209.695 13.993 208.849 14.9677 208.19C15.9997 207.559 16.831 207.746 17.4617 208.749L26.0617 222.552L35.0917 208.749C35.3927 208.276 35.7582 207.996 36.1882 207.91C36.6182 207.81 37.0697 207.932 37.5427 208.276C38.589 208.921 38.7754 209.738 38.1017 210.727L27.8677 226.422V235.194C27.8677 236.398 27.2657 237 26.0617 237ZM47.0941 237C44.2417 237 42.1204 236.312 40.7301 234.936C39.3541 233.56 38.6661 231.453 38.6661 228.615V223.627C38.6661 220.746 39.3541 218.625 40.7301 217.263C42.1204 215.887 44.2417 215.199 47.0941 215.199H50.6201C53.4867 215.199 55.6081 215.887 56.9841 217.263C58.3601 218.639 59.0481 220.76 59.0481 223.627V228.572C59.0481 231.424 58.3601 233.546 56.9841 234.936C55.6081 236.312 53.4867 237 50.6201 237H47.0941ZM42.2781 228.615C42.2781 230.464 42.6149 231.725 43.2886 232.399C43.9622 233.058 45.2307 233.388 47.0941 233.388H50.6201C52.4977 233.388 53.7662 233.051 54.4256 232.377C55.0992 231.704 55.4361 230.435 55.4361 228.572V223.627C55.4361 221.749 55.0992 220.481 54.4256 219.821C53.7662 219.148 52.4977 218.811 50.6201 218.811H47.0941C45.8471 218.811 44.8724 218.954 44.1701 219.241C43.4821 219.513 42.9947 220.001 42.7081 220.703C42.4214 221.391 42.2781 222.366 42.2781 223.627V228.615ZM84.667 215.199C85.871 215.199 86.473 215.801 86.473 217.005V235.194C86.473 236.398 85.871 237 84.667 237C83.463 237 82.861 236.398 82.861 235.194V234.484C81.3417 236.161 79.1057 237 76.153 237H74.949C72.0967 237 69.9753 236.312 68.585 234.936C67.209 233.546 66.521 231.424 66.521 228.572V217.005C66.521 215.801 67.123 215.199 68.327 215.199C69.531 215.199 70.133 215.801 70.133 217.005V228.572C70.133 230.435 70.4698 231.704 71.1435 232.377C71.8315 233.051 73.1 233.388 74.949 233.388H76.153C77.873 233.388 79.3708 233.187 80.6465 232.786C81.9365 232.385 82.6747 231.768 82.861 230.937V217.005C82.861 215.801 83.463 215.199 84.667 215.199ZM97.2277 237C96.0237 237 95.4217 236.398 95.4217 235.194V217.005C95.4217 215.801 96.0237 215.199 97.2277 215.199C98.4317 215.199 99.0337 215.801 99.0337 217.005V218.682C99.8794 217.535 100.954 216.668 102.259 216.08C103.577 215.493 105.082 215.199 106.774 215.199C107.978 215.199 108.58 215.801 108.58 217.005C108.58 218.209 107.978 218.811 106.774 218.811C104.294 218.811 102.402 219.27 101.098 220.187C99.7934 221.104 99.1054 222.315 99.0337 223.82V235.194C99.0337 236.398 98.4317 237 97.2277 237ZM136.023 237C135.421 237 134.969 236.849 134.668 236.548C134.367 236.247 134.217 235.796 134.217 235.194V211.501H125.875C125.273 211.501 124.821 211.35 124.52 211.049C124.219 210.748 124.069 210.297 124.069 209.695C124.069 209.093 124.219 208.641 124.52 208.34C124.821 208.039 125.273 207.889 125.875 207.889H146.171C146.773 207.889 147.224 208.039 147.525 208.34C147.826 208.641 147.977 209.093 147.977 209.695C147.977 210.297 147.826 210.748 147.525 211.049C147.224 211.35 146.773 211.501 146.171 211.501H137.829V235.194C137.829 235.767 137.671 236.212 137.356 236.527C137.055 236.842 136.61 237 136.023 237ZM151.65 237C150.446 237 149.844 236.398 149.844 235.194V217.005C149.844 215.801 150.446 215.199 151.65 215.199C152.854 215.199 153.456 215.801 153.456 217.005V218.682C154.301 217.535 155.376 216.668 156.681 216.08C157.999 215.493 159.504 215.199 161.196 215.199C162.4 215.199 163.002 215.801 163.002 217.005C163.002 218.209 162.4 218.811 161.196 218.811C158.716 218.811 156.824 219.27 155.52 220.187C154.215 221.104 153.527 222.315 153.456 223.82V235.194C153.456 236.398 152.854 237 151.65 237ZM185.91 215.199C187.114 215.199 187.716 215.801 187.716 217.005V235.194C187.716 236.398 187.114 237 185.91 237C184.706 237 184.104 236.398 184.104 235.194V234.484C182.585 236.161 180.349 237 177.396 237H176.192C173.34 237 171.219 236.312 169.828 234.936C168.452 233.546 167.764 231.424 167.764 228.572V217.005C167.764 215.801 168.366 215.199 169.57 215.199C170.774 215.199 171.376 215.801 171.376 217.005V228.572C171.376 230.435 171.713 231.704 172.387 232.377C173.075 233.051 174.343 233.388 176.192 233.388H177.396C179.116 233.388 180.614 233.187 181.89 232.786C183.18 232.385 183.918 231.768 184.104 230.937V217.005C184.104 215.801 184.706 215.199 185.91 215.199ZM201.782 237C199.962 237 198.521 236.627 197.46 235.882C196.4 235.122 195.719 233.99 195.418 232.485C195.318 231.883 195.432 231.41 195.762 231.066C196.106 230.722 196.579 230.55 197.181 230.55C197.769 230.55 198.191 230.7 198.449 231.001C198.722 231.288 198.944 231.725 199.116 232.313C199.288 232.743 199.575 233.03 199.976 233.173C200.392 233.316 200.994 233.388 201.782 233.388H208.834C209.952 233.388 210.704 233.209 211.091 232.85C211.478 232.478 211.672 231.711 211.672 230.55C211.672 229.403 211.478 228.644 211.091 228.271C210.704 227.898 209.952 227.712 208.834 227.712H201.911C199.847 227.712 198.292 227.189 197.245 226.143C196.199 225.096 195.676 223.541 195.676 221.477C195.676 219.37 196.185 217.8 197.202 216.768C198.234 215.722 199.804 215.199 201.911 215.199H208.619C211.987 215.199 213.98 216.618 214.596 219.456C214.711 220.058 214.596 220.524 214.252 220.853C213.908 221.183 213.435 221.348 212.833 221.348C212.274 221.348 211.858 221.205 211.586 220.918C211.314 220.617 211.099 220.201 210.941 219.671C210.769 219.327 210.504 219.098 210.145 218.983C209.801 218.868 209.293 218.811 208.619 218.811H201.911C200.822 218.811 200.112 218.976 199.782 219.305C199.453 219.635 199.288 220.359 199.288 221.477C199.288 222.509 199.46 223.204 199.804 223.562C200.162 223.921 200.865 224.1 201.911 224.1H208.834C210.984 224.1 212.596 224.637 213.671 225.712C214.746 226.787 215.284 228.4 215.284 230.55C215.284 232.714 214.746 234.334 213.671 235.409C212.596 236.47 210.984 237 208.834 237H201.782ZM232.154 237C229.316 237 227.223 236.326 225.876 234.979C224.529 233.632 223.855 231.553 223.855 228.744V218.811H221.748C220.544 218.811 219.942 218.209 219.942 217.005C219.942 215.801 220.544 215.199 221.748 215.199H223.855V212.06C223.855 210.856 224.457 210.254 225.661 210.254C226.865 210.254 227.467 210.856 227.467 212.06V215.199H232.412C233.616 215.199 234.218 215.801 234.218 217.005C234.218 218.209 233.616 218.811 232.412 218.811H227.467V228.744C227.467 230.564 227.797 231.797 228.456 232.442C229.115 233.073 230.348 233.388 232.154 233.388C232.713 233.388 233.15 233.531 233.465 233.818C233.795 234.105 233.96 234.563 233.96 235.194C233.96 236.398 233.358 237 232.154 237ZM241.825 227.583V228.615C241.825 230.464 242.162 231.725 242.835 232.399C243.509 233.058 244.778 233.388 246.641 233.388H250.167C251.629 233.388 252.711 233.252 253.413 232.979C254.116 232.707 254.582 232.227 254.811 231.539C254.969 230.994 255.184 230.579 255.456 230.292C255.743 230.005 256.173 229.862 256.746 229.862C257.348 229.862 257.807 230.02 258.122 230.335C258.437 230.65 258.538 231.109 258.423 231.711C258.108 233.488 257.262 234.814 255.886 235.688C254.51 236.563 252.604 237 250.167 237H246.641C243.789 237 241.667 236.312 240.277 234.936C238.901 233.56 238.213 231.453 238.213 228.615V223.627C238.213 220.717 238.901 218.582 240.277 217.22C241.667 215.844 243.789 215.17 246.641 215.199H250.167C253.034 215.199 255.155 215.887 256.531 217.263C257.907 218.625 258.595 220.746 258.595 223.627V225.777C258.595 226.981 257.993 227.583 256.789 227.583H241.825ZM246.641 218.811C244.778 218.782 243.509 219.105 242.835 219.778C242.162 220.452 241.825 221.735 241.825 223.627V223.971H254.983V223.627C254.983 221.749 254.646 220.481 253.972 219.821C253.313 219.148 252.045 218.811 250.167 218.811H246.641ZM273.894 237C271.042 237 268.92 236.312 267.53 234.936C266.154 233.546 265.466 231.424 265.466 228.572V223.627C265.466 220.76 266.154 218.639 267.53 217.263C268.92 215.887 271.042 215.199 273.894 215.199H282.236V208.534C282.236 207.33 282.838 206.728 284.042 206.728C285.246 206.728 285.848 207.33 285.848 208.534V235.194C285.848 236.398 285.246 237 284.042 237C282.838 237 282.236 236.398 282.236 235.194V234.893C281.562 235.581 280.681 236.104 279.591 236.462C278.502 236.821 277.148 237 275.528 237H273.894ZM273.894 233.388H275.528C277.42 233.388 279.011 233.144 280.301 232.657C281.591 232.17 282.236 231.424 282.236 230.421V218.811H273.894C272.031 218.811 270.762 219.155 270.088 219.843C269.415 220.517 269.078 221.778 269.078 223.627V228.572C269.078 230.435 269.415 231.704 270.088 232.377C270.776 233.051 272.045 233.388 273.894 233.388ZM316.631 237C316.029 237 315.578 236.849 315.277 236.548C314.976 236.247 314.825 235.796 314.825 235.194V211.501H306.483C305.881 211.501 305.43 211.35 305.129 211.049C304.828 210.748 304.677 210.297 304.677 209.695C304.677 209.093 304.828 208.641 305.129 208.34C305.43 208.039 305.881 207.889 306.483 207.889H326.779C327.381 207.889 327.833 208.039 328.134 208.34C328.435 208.641 328.585 209.093 328.585 209.695C328.585 210.297 328.435 210.748 328.134 211.049C327.833 211.35 327.381 211.501 326.779 211.501H318.437V235.194C318.437 235.767 318.28 236.212 317.964 236.527C317.663 236.842 317.219 237 316.631 237ZM332.15 227.583V228.615C332.15 230.464 332.487 231.725 333.161 232.399C333.834 233.058 335.103 233.388 336.966 233.388H340.492C341.954 233.388 343.036 233.252 343.739 232.979C344.441 232.707 344.907 232.227 345.136 231.539C345.294 230.994 345.509 230.579 345.781 230.292C346.068 230.005 346.498 229.862 347.071 229.862C347.673 229.862 348.132 230.02 348.447 230.335C348.762 230.65 348.863 231.109 348.748 231.711C348.433 233.488 347.587 234.814 346.211 235.688C344.835 236.563 342.929 237 340.492 237H336.966C334.114 237 331.992 236.312 330.602 234.936C329.226 233.56 328.538 231.453 328.538 228.615V223.627C328.538 220.717 329.226 218.582 330.602 217.22C331.992 215.844 334.114 215.17 336.966 215.199H340.492C343.359 215.199 345.48 215.887 346.856 217.263C348.232 218.625 348.92 220.746 348.92 223.627V225.777C348.92 226.981 348.318 227.583 347.114 227.583H332.15ZM336.966 218.811C335.103 218.782 333.834 219.105 333.161 219.778C332.487 220.452 332.15 221.735 332.15 223.627V223.971H345.308V223.627C345.308 221.749 344.971 220.481 344.298 219.821C343.638 219.148 342.37 218.811 340.492 218.811H336.966ZM364.219 237C361.367 237 359.245 236.312 357.855 234.936C356.479 233.546 355.791 231.424 355.791 228.572V223.584C355.791 220.717 356.472 218.596 357.834 217.22C359.21 215.844 361.338 215.17 364.219 215.199H367.745C369.881 215.199 371.558 215.557 372.776 216.274C374.009 216.991 374.797 218.094 375.141 219.585C375.27 220.187 375.163 220.653 374.819 220.982C374.489 221.312 374.009 221.477 373.378 221.477C372.819 221.477 372.411 221.334 372.153 221.047C371.895 220.76 371.658 220.359 371.443 219.843C371.228 219.456 370.834 219.191 370.261 219.047C369.687 218.89 368.849 218.811 367.745 218.811H364.219C362.37 218.782 361.102 219.105 360.414 219.778C359.74 220.438 359.403 221.706 359.403 223.584V228.572C359.403 230.435 359.74 231.704 360.414 232.377C361.102 233.051 362.37 233.388 364.219 233.388H367.745C368.849 233.388 369.687 233.316 370.261 233.173C370.834 233.015 371.228 232.743 371.443 232.356C371.658 231.811 371.895 231.403 372.153 231.13C372.425 230.858 372.848 230.722 373.421 230.722C374.023 230.722 374.489 230.887 374.819 231.216C375.163 231.546 375.27 232.012 375.141 232.614C374.797 234.09 374.009 235.194 372.776 235.925C371.558 236.642 369.881 237 367.745 237H364.219ZM384.454 237C383.25 237 382.648 236.398 382.648 235.194V208.534C382.648 207.33 383.25 206.728 384.454 206.728C385.658 206.728 386.26 207.33 386.26 208.534V217.714C387.78 216.037 390.016 215.199 392.968 215.199H394.172C397.039 215.199 399.16 215.887 400.536 217.263C401.912 218.639 402.6 220.76 402.6 223.627V235.194C402.6 236.398 401.998 237 400.794 237C399.59 237 398.988 236.398 398.988 235.194V223.627C398.988 221.749 398.644 220.481 397.956 219.821C397.283 219.148 396.021 218.811 394.172 218.811H392.968C391.248 218.811 389.75 219.012 388.475 219.413C387.199 219.8 386.461 220.416 386.26 221.262V235.194C386.26 236.398 385.658 237 384.454 237ZM426.446 237C425.242 237 424.64 236.398 424.64 235.194V209.652C424.64 208.448 425.242 207.846 426.446 207.846H436.508C439.131 207.846 441.138 208.548 442.528 209.953C443.933 211.343 444.635 213.35 444.635 215.973V217.263C444.635 219.886 443.933 221.9 442.528 223.304C441.138 224.695 439.131 225.39 436.508 225.39H428.252V235.194C428.252 236.398 427.65 237 426.446 237ZM428.252 221.778H436.508C438.142 221.778 439.303 221.434 439.991 220.746C440.679 220.058 441.023 218.897 441.023 217.263V215.973C441.023 214.353 440.679 213.199 439.991 212.511C439.303 211.809 438.142 211.458 436.508 211.458H428.252V221.778ZM457.72 237C455.312 237 453.52 236.412 452.345 235.237C451.169 234.062 450.582 232.27 450.582 229.862C450.582 227.454 451.162 225.662 452.323 224.487C453.498 223.312 455.297 222.724 457.72 222.724H466.814C466.728 221.219 466.334 220.194 465.632 219.649C464.929 219.09 463.725 218.811 462.02 218.811H459.526C458.092 218.811 457.024 218.911 456.322 219.112C455.62 219.298 455.125 219.642 454.839 220.144C454.581 220.746 454.315 221.162 454.043 221.391C453.771 221.62 453.362 221.735 452.818 221.735C452.216 221.735 451.743 221.57 451.399 221.24C451.055 220.896 450.954 220.445 451.098 219.886C451.528 218.266 452.423 217.084 453.785 216.338C455.161 215.579 457.075 215.199 459.526 215.199H462.02C464.886 215.199 467.008 215.887 468.384 217.263C469.76 218.639 470.448 220.76 470.448 223.627V235.194C470.448 236.398 469.846 237 468.642 237C467.438 237 466.836 236.398 466.836 235.194V234.226C465.302 236.075 463.066 237 460.128 237H457.72ZM457.72 233.388H460.128C461.188 233.388 462.184 233.295 463.116 233.108C464.048 232.908 464.843 232.549 465.503 232.033C466.176 231.517 466.621 230.779 466.836 229.819V226.336H457.72C456.301 226.336 455.355 226.572 454.882 227.045C454.423 227.518 454.194 228.457 454.194 229.862C454.194 231.281 454.423 232.227 454.882 232.7C455.355 233.159 456.301 233.388 457.72 233.388ZM480.784 237C479.58 237 478.978 236.398 478.978 235.194V217.005C478.978 215.801 479.58 215.199 480.784 215.199C481.988 215.199 482.59 215.801 482.59 217.005V218.682C483.436 217.535 484.511 216.668 485.815 216.08C487.134 215.493 488.639 215.199 490.33 215.199C491.534 215.199 492.136 215.801 492.136 217.005C492.136 218.209 491.534 218.811 490.33 218.811C487.851 218.811 485.959 219.27 484.654 220.187C483.35 221.104 482.662 222.315 482.59 223.82V235.194C482.59 236.398 481.988 237 480.784 237ZM506.531 237C503.693 237 501.6 236.326 500.253 234.979C498.906 233.632 498.232 231.553 498.232 228.744V218.811H496.125C494.921 218.811 494.319 218.209 494.319 217.005C494.319 215.801 494.921 215.199 496.125 215.199H498.232V212.06C498.232 210.856 498.834 210.254 500.038 210.254C501.242 210.254 501.844 210.856 501.844 212.06V215.199H506.789C507.993 215.199 508.595 215.801 508.595 217.005C508.595 218.209 507.993 218.811 506.789 218.811H501.844V228.744C501.844 230.564 502.174 231.797 502.833 232.442C503.492 233.073 504.725 233.388 506.531 233.388C507.09 233.388 507.527 233.531 507.842 233.818C508.172 234.105 508.337 234.563 508.337 235.194C508.337 236.398 507.735 237 506.531 237ZM517.15 237C515.946 237 515.344 236.398 515.344 235.194V217.005C515.344 215.801 515.946 215.199 517.15 215.199C518.354 215.199 518.956 215.801 518.956 217.005V217.714C520.475 216.037 522.711 215.199 525.664 215.199H526.868C529.734 215.199 531.856 215.887 533.232 217.263C534.608 218.639 535.296 220.76 535.296 223.627V235.194C535.296 236.398 534.694 237 533.49 237C532.286 237 531.684 236.398 531.684 235.194V223.627C531.684 221.749 531.34 220.481 530.652 219.821C529.978 219.148 528.717 218.811 526.868 218.811H525.664C523.944 218.811 522.446 219.012 521.17 219.413C519.894 219.8 519.156 220.416 518.956 221.262V235.194C518.956 236.398 518.354 237 517.15 237ZM546.394 227.583V228.615C546.394 230.464 546.731 231.725 547.405 232.399C548.078 233.058 549.347 233.388 551.21 233.388H554.736C556.198 233.388 557.28 233.252 557.983 232.979C558.685 232.707 559.151 232.227 559.38 231.539C559.538 230.994 559.753 230.579 560.025 230.292C560.312 230.005 560.742 229.862 561.315 229.862C561.917 229.862 562.376 230.02 562.691 230.335C563.007 230.65 563.107 231.109 562.992 231.711C562.677 233.488 561.831 234.814 560.455 235.688C559.079 236.563 557.173 237 554.736 237H551.21C548.358 237 546.237 236.312 544.846 234.936C543.47 233.56 542.782 231.453 542.782 228.615V223.627C542.782 220.717 543.47 218.582 544.846 217.22C546.237 215.844 548.358 215.17 551.21 215.199H554.736C557.603 215.199 559.724 215.887 561.1 217.263C562.476 218.625 563.164 220.746 563.164 223.627V225.777C563.164 226.981 562.562 227.583 561.358 227.583H546.394ZM551.21 218.811C549.347 218.782 548.078 219.105 547.405 219.778C546.731 220.452 546.394 221.735 546.394 223.627V223.971H559.552V223.627C559.552 221.749 559.215 220.481 558.542 219.821C557.882 219.148 556.614 218.811 554.736 218.811H551.21ZM572.873 237C571.669 237 571.067 236.398 571.067 235.194V217.005C571.067 215.801 571.669 215.199 572.873 215.199C574.077 215.199 574.679 215.801 574.679 217.005V218.682C575.525 217.535 576.6 216.668 577.904 216.08C579.223 215.493 580.728 215.199 582.419 215.199C583.623 215.199 584.225 215.801 584.225 217.005C584.225 218.209 583.623 218.811 582.419 218.811C579.94 218.811 578.048 219.27 576.743 220.187C575.439 221.104 574.751 222.315 574.679 223.82V235.194C574.679 236.398 574.077 237 572.873 237Z" fill="white"/>
</svg>
