<svg width="611" height="165" viewBox="0 0 611 165" fill="none" xmlns="http://www.w3.org/2000/svg">
<path d="M61.5734 161C46.5734 161 35.5068 157.467 28.3734 150.4C21.3068 143.267 17.7734 132.2 17.7734 117.2V71.4C17.7734 56.2667 21.3068 45.1667 28.3734 38.1C35.4401 31.0333 46.4401 27.5333 61.3734 27.6H85.5734C97.9734 27.6 107.373 30.2 113.773 35.4C120.173 40.5333 123.84 48.6667 124.773 59.8C125.107 62.2667 124.64 64.1667 123.373 65.5C122.107 66.7667 120.24 67.4 117.773 67.4C113.307 67.4 110.74 64.9333 110.073 60C109.473 53.2 107.307 48.5667 103.573 46.1C99.8401 43.5667 93.8401 42.3 85.5734 42.3H61.3734C54.1068 42.3 48.3734 43.2 44.1734 45C39.9734 46.7333 36.9734 49.7333 35.1734 54C33.3734 58.2 32.4734 64 32.4734 71.4V117.2C32.4734 124.533 33.3734 130.333 35.1734 134.6C36.9734 138.8 39.9734 141.8 44.1734 143.6C48.4401 145.4 54.2401 146.3 61.5734 146.3H85.5734C93.8401 146.3 99.8401 145.067 103.573 142.6C107.307 140.067 109.473 135.4 110.073 128.6C110.74 123.667 113.307 121.2 117.773 121.2C120.24 121.2 122.107 121.867 123.373 123.2C124.64 124.467 125.107 126.333 124.773 128.8C123.84 140 120.173 148.167 113.773 153.3C107.373 158.433 97.9734 161 85.5734 161H61.5734ZM166.383 161C161.449 161 158.983 158.533 158.983 153.6V35C158.983 30.0667 161.449 27.6 166.383 27.6C169.649 27.6 172.349 29.2 174.483 32.4L222.583 105.1L219.383 105.6L267.683 32.4C269.683 29.2 272.649 27.6 276.583 27.6C280.649 27.6 282.683 30.0667 282.683 35V153.6C282.683 158.533 280.249 161 275.383 161C270.449 161 267.983 158.533 267.983 153.6V49.7L272.483 51.2L229.083 115.9C226.949 119.033 223.983 120.6 220.183 120.6C217.383 120.6 214.916 119.033 212.783 115.9L169.383 51.2L173.683 52.5V153.6C173.683 158.533 171.249 161 166.383 161ZM362.65 161C360.25 161 358.417 160.4 357.15 159.2C355.883 157.933 355.25 156.1 355.25 153.7V42.4H315.25C312.85 42.4 311.017 41.8 309.75 40.6C308.483 39.3333 307.85 37.5 307.85 35.1C307.85 32.7 308.483 30.8667 309.75 29.6C311.017 28.3333 312.85 27.7 315.25 27.7H410.05C412.45 27.7 414.25 28.3333 415.45 29.6C416.717 30.8667 417.35 32.7 417.35 35.1C417.35 37.5 416.717 39.3333 415.45 40.6C414.25 41.8 412.45 42.4 410.05 42.4H369.95V153.7C369.95 155.967 369.317 157.767 368.05 159.1C366.783 160.367 364.983 161 362.65 161Z" fill="#000E0F"/>
<path d="M436.961 160.3C432.294 158.433 430.894 155.2 432.761 150.6L481.061 33.4C482.728 29.5333 485.461 27.6 489.261 27.6H489.761C493.561 27.8 496.161 29.7333 497.561 33.4L546.361 150.6C548.228 155.2 546.894 158.433 542.361 160.3C537.761 162.1 534.561 160.767 532.761 156.3L521.061 128.3H457.761L446.461 156.3C444.594 160.833 441.428 162.167 436.961 160.3ZM463.561 113.6H515.061L488.961 50.9L463.561 113.6ZM581.844 161C579.377 161 577.51 160.4 576.244 159.2C575.044 157.933 574.444 156.067 574.444 153.6V35.1C574.444 32.5667 575.044 30.7 576.244 29.5C577.51 28.3 579.377 27.7 581.844 27.7C584.31 27.7 586.144 28.3 587.344 29.5C588.544 30.7 589.144 32.5667 589.144 35.1V153.6C589.144 156.067 588.544 157.933 587.344 159.2C586.144 160.4 584.31 161 581.844 161Z" fill="#00959F"/>
<path d="M590.318 8.65812C590.254 8.62062 590.189 8.58966 590.123 8.56023C590.088 8.54051 590.046 8.52355 590.009 8.50825C589.942 8.47305 589.874 8.4415 589.807 8.40918L589.438 8.2496C589.37 8.21987 589.304 8.19044 589.232 8.16483C589.101 8.10732 588.962 8.05959 588.83 8.00361C588.772 7.98218 588.717 7.95923 588.656 7.9401C588.409 7.84309 588.194 7.76916 587.975 7.70483C587.816 7.65386 587.658 7.60501 587.494 7.56075C587.436 7.54115 587.375 7.52385 587.316 7.50501L586.877 7.39019C586.825 7.37801 586.769 7.36053 586.713 7.34882C586.519 7.2988 586.322 7.25761 586.123 7.21429C586.121 7.21218 586.117 7.21235 586.112 7.2107C585.852 7.13778 585.594 7.0916 585.336 7.07232L585.328 7.07114C585.181 7.04549 585.034 7.02089 584.883 7.00119L584.702 6.97572C584.505 6.95048 584.308 6.92631 584.108 6.90991C584.106 6.91144 584.104 6.91008 584.101 6.91055L584.002 6.90121C583.826 6.88498 583.65 6.87057 583.476 6.86406L583.263 6.84849C583.121 6.8415 582.979 6.84105 582.836 6.83665L582.613 6.83056C582.461 6.82757 582.304 6.8313 582.152 6.83197C582.096 6.83227 582.039 6.83258 581.984 6.83576L581.936 6.83359L581.498 6.85373L581.31 6.86082C581.082 6.87374 580.861 6.89226 580.639 6.91078C580.579 6.92068 580.517 6.92846 580.457 6.93288C580.296 6.94987 580.129 6.96885 579.97 6.99189C579.881 7.0018 579.793 7.01853 579.704 7.03315C579.593 7.04606 579.479 7.06232 579.362 7.07906C579.334 7.08848 579.309 7.09485 579.283 7.09803L579.282 7.10533C579.235 7.1147 579.19 7.12148 579.144 7.12902C578.972 7.15731 578.796 7.1926 578.616 7.23278C578.583 7.24056 578.548 7.24987 578.51 7.25494C578.309 7.29842 578.111 7.34508 577.91 7.39769C577.866 7.41312 577.815 7.42267 577.768 7.43569C577.587 7.485 577.4 7.53631 577.217 7.59003L577.151 7.60924C576.949 7.67127 576.752 7.73389 576.551 7.80351C576.506 7.82047 576.457 7.83503 576.409 7.85352C576.204 7.92438 575.998 7.98188 575.805 8.07335C563.545 13.9641 566.567 24.7372 566.567 24.7372C566.707 19.3728 570.738 15.0568 575.914 12.8408C576.106 12.7595 576.309 12.6931 576.511 12.6209C576.794 12.517 577.081 12.4216 577.37 12.3348L577.248 12.3768L577.332 12.3547C577.51 12.2994 577.688 12.2531 577.867 12.2053C577.912 12.195 577.957 12.1832 578.001 12.1698L578.015 12.1646C578.215 12.1145 578.412 12.0686 578.61 12.0267C578.65 12.0136 578.689 12.0085 578.73 11.9975C578.964 11.9464 579.199 11.9 579.434 11.8584L579.242 11.8994C579.292 11.8887 579.343 11.88 579.394 11.8734C579.527 11.848 579.664 11.8291 579.797 11.8084C579.897 11.79 579.997 11.7746 580.097 11.7623L580.068 11.767C580.234 11.7441 580.403 11.7265 580.57 11.7038C580.624 11.7032 580.681 11.6946 580.739 11.688C580.993 11.6627 581.248 11.6426 581.503 11.628L581.408 11.6359C581.472 11.6312 581.537 11.6289 581.602 11.629L581.593 11.6293C581.757 11.617 581.921 11.6098 582.086 11.6078C582.139 11.6051 582.19 11.6068 582.245 11.6054C582.415 11.6009 582.586 11.6003 582.756 11.6036L582.718 11.604C582.788 11.6078 582.86 11.6073 582.933 11.6078C583.079 11.6136 583.223 11.6154 583.372 11.6243L583.568 11.6336C583.778 11.6433 583.987 11.6581 584.196 11.6778L584.198 11.6781L584.806 11.7462L584.984 11.7693C585.134 11.7945 585.283 11.8139 585.435 11.8365L585.614 11.8682C585.802 11.8976 585.99 11.9316 586.176 11.97L586.188 11.9729L586.217 11.9747C586.418 12.0169 586.618 12.0617 586.818 12.1092C586.871 12.1213 586.922 12.1372 586.977 12.1507L587.428 12.2684C587.635 12.3262 587.841 12.3878 588.045 12.453L588.131 12.4818C593.04 14.0576 597.306 18.0549 598.103 23.2984L598.236 19.8197C598.135 14.9721 594.815 10.9852 590.618 8.80941C590.518 8.75402 590.418 8.70698 590.318 8.65812Z" fill="#00959F"/>
<path d="M583.958 18.2428L583.794 18.2163C583.589 18.187 583.384 18.1632 583.176 18.1409L583.15 18.1386C582.942 18.1181 582.714 18.1038 582.484 18.0958L582.45 18.0949C582.397 18.0966 582.345 18.0902 582.293 18.0911C582.062 18.0838 581.834 18.0826 581.6 18.086L581.577 18.0879C581.477 18.0877 581.376 18.0948 581.268 18.1017C581.225 18.1041 581.173 18.1032 581.127 18.1071C580.963 18.1161 580.805 18.129 580.642 18.142C580.619 18.1476 580.596 18.1496 580.574 18.1544C580.437 18.165 580.293 18.1839 580.157 18.205C580.107 18.2091 580.061 18.2177 580.011 18.2236C579.915 18.2399 579.818 18.2533 579.725 18.2663L579.68 18.2759C579.487 18.3094 579.294 18.3493 579.105 18.388C579.059 18.4003 579.02 18.4108 578.979 18.4182C578.825 18.4523 578.67 18.4901 578.521 18.5305C578.455 18.5508 578.39 18.5656 578.329 18.5857C578.192 18.6235 578.053 18.6683 577.919 18.7086L577.737 18.7681C577.549 18.8321 577.347 18.8829 577.165 18.9762C567.8 23.6657 570.545 31.5116 570.545 31.5116C570.464 27.7376 572.966 24.093 577.237 22.4167C577.45 22.3318 577.665 22.2539 577.882 22.1829L577.81 22.2096C577.87 22.1866 577.926 22.1704 577.985 22.15C578.123 22.1085 578.262 22.0637 578.397 22.0256L578.591 21.9726C578.743 21.9345 578.896 21.8917 579.047 21.8591C579.095 21.849 579.135 21.8359 579.174 21.8319C579.37 21.7914 579.567 21.7492 579.762 21.7143L580.061 21.6699L580.233 21.6424C580.367 21.6229 580.495 21.6108 580.627 21.5974C580.659 21.5914 580.691 21.5876 580.723 21.5858L580.719 21.5871C580.882 21.5759 581.047 21.5595 581.206 21.5524C581.256 21.5465 581.307 21.5471 581.356 21.5438L581.679 21.5276C581.908 21.5234 582.139 21.5288 582.369 21.5296C582.425 21.5358 582.477 21.5375 582.529 21.5413C585.012 21.6368 587.492 22.4307 589.481 23.9246C591.556 25.472 593.049 27.814 593.295 30.4153L593.256 27.5808C593.185 24.0684 590.828 21.0171 587.771 19.4687C587.209 19.1807 586.696 18.9659 586.171 18.7868C585.68 18.6159 585.12 18.404 584.598 18.3591C584.39 18.3114 584.177 18.2762 583.958 18.2428Z" fill="#00959F"/>
<path d="M588.886 33.8553C588.822 31.7531 587.644 29.9399 585.858 28.8687C583.961 27.731 581.59 27.4785 579.475 28.0787C579.388 28.102 579.305 28.1279 579.216 28.1538L579.102 28.1926C578.983 28.2323 578.859 28.2674 578.743 28.3179C573.479 30.7808 574.599 34.9519 574.612 35.6762C574.564 33.2986 576.131 31.5801 578.792 30.4871C579.024 30.3925 579.261 30.312 579.503 30.2462L579.46 30.2598C579.755 30.1706 580.055 30.0985 580.359 30.0437L580.306 30.0548C580.892 29.9528 581.429 29.9123 581.964 29.9247C585.102 29.993 588.478 32.011 588.89 35.353L588.886 33.8553Z" fill="#00959F"/>
</svg>
