<svg width="48" height="48" viewBox="0 0 48 48" fill="none" xmlns="http://www.w3.org/2000/svg">
<g clip-path="url(#clip0_136_32)">
<path d="M23.9965 47.993C37.2494 47.993 47.993 37.2494 47.993 23.9965C47.993 10.7436 37.2494 0 23.9965 0C10.7436 0 0 10.7436 0 23.9965C0 37.2494 10.7436 47.993 23.9965 47.993Z" fill="#66FFF0"/>
<path d="M14.6243 32.1523L20.8888 15.8406H23.209L29.8884 32.1523H27.4276L25.5292 27.2166H18.7093L16.9164 32.1523H14.6243ZM19.335 25.4519H24.8613L23.1598 20.938C22.7279 19.8268 22.3409 18.6986 21.9997 17.5562C21.7888 18.6108 21.5076 19.6444 21.1209 20.6709L19.335 25.4519ZM31.3579 18.1468V15.8406H33.3687V18.1468H31.3579ZM31.3579 32.1523V20.3404H33.3687V32.1523H31.3579Z" fill="#000E0F"/>
</g>
<defs>
<clipPath id="clip0_136_32">
<rect width="48" height="48" fill="white"/>
</clipPath>
</defs>
</svg>
