<svg width="48" height="48" viewBox="0 0 48 48" fill="none" xmlns="http://www.w3.org/2000/svg">
<g clip-path="url(#clip0_136_17)">
<path d="M43.6706 19.5141H37.5141V20.5603H43.6706V19.5141Z" fill="#66FFF0"/>
<path d="M43.6706 21.5944C44.5301 21.5944 45.2269 20.8976 45.2269 20.0381C45.2269 19.1786 44.5301 18.4819 43.6706 18.4819C42.8111 18.4819 42.1144 19.1786 42.1144 20.0381C42.1144 20.8976 42.8111 21.5944 43.6706 21.5944Z" fill="#66FFF0"/>
<path d="M46.4438 23.4769H37.5141V24.5231H46.4438V23.4769Z" fill="#66FFF0"/>
<path d="M46.4437 25.5563C47.3032 25.5563 48 24.8595 48 24C48 23.1405 47.3032 22.4438 46.4437 22.4438C45.5843 22.4438 44.8875 23.1405 44.8875 24C44.8875 24.8595 45.5843 25.5563 46.4437 25.5563Z" fill="#66FFF0"/>
<path d="M43.6706 27.4387H37.5141V28.485H43.6706V27.4387Z" fill="#66FFF0"/>
<path d="M43.6706 29.5181C44.5301 29.5181 45.2269 28.8214 45.2269 27.9619C45.2269 27.1024 44.5301 26.4056 43.6706 26.4056C42.8111 26.4056 42.1144 27.1024 42.1144 27.9619C42.1144 28.8214 42.8111 29.5181 43.6706 29.5181Z" fill="#66FFF0"/>
<path d="M10.4859 19.515H4.32938V20.5613H10.4859V19.515Z" fill="#66FFF0"/>
<path d="M4.32937 21.5944C5.18887 21.5944 5.88562 20.8976 5.88562 20.0381C5.88562 19.1786 5.18887 18.4819 4.32937 18.4819C3.46988 18.4819 2.77312 19.1786 2.77312 20.0381C2.77312 20.8976 3.46988 21.5944 4.32937 21.5944Z" fill="#66FFF0"/>
<path d="M10.4859 23.4769H1.55625V24.5231H10.4859V23.4769Z" fill="#66FFF0"/>
<path d="M1.55625 25.5563C2.41574 25.5563 3.1125 24.8595 3.1125 24C3.1125 23.1405 2.41574 22.4438 1.55625 22.4438C0.696757 22.4438 0 23.1405 0 24C0 24.8595 0.696757 25.5563 1.55625 25.5563Z" fill="#66FFF0"/>
<path d="M10.4859 27.4397H4.32938V28.4859H10.4859V27.4397Z" fill="#66FFF0"/>
<path d="M4.32937 29.5181C5.18887 29.5181 5.88562 28.8214 5.88562 27.9619C5.88562 27.1024 5.18887 26.4056 4.32937 26.4056C3.46988 26.4056 2.77312 27.1024 2.77312 27.9619C2.77312 28.8214 3.46988 29.5181 4.32937 29.5181Z" fill="#66FFF0"/>
<path d="M32.7816 0H15.2184C13.7625 0 12.5822 1.18031 12.5822 2.63625V45.3647C12.5822 46.8206 13.7625 48.0009 15.2184 48.0009H32.7816C34.2375 48.0009 35.4178 46.8206 35.4178 45.3647V2.63625C35.4178 1.18031 34.2375 0 32.7816 0ZM32.7712 43.0969C32.7712 43.9125 32.1094 44.5744 31.2937 44.5744H16.7062C15.8906 44.5744 15.2287 43.9125 15.2287 43.0969V5.67188C15.2287 4.85625 15.8906 4.19438 16.7062 4.19438H31.2937C32.1094 4.19438 32.7712 4.85625 32.7712 5.67188V43.0969Z" fill="#66FFF0"/>
<path d="M25.6519 2.61469H22.3491C22.0322 2.61469 21.7744 2.35781 21.7744 2.04C21.7744 1.72313 22.0312 1.46531 22.3491 1.46531H25.6519C25.9687 1.46531 26.2266 1.72219 26.2266 2.04C26.2256 2.35781 25.9687 2.61469 25.6519 2.61469Z" fill="#000E0F"/>
</g>
<defs>
<clipPath id="clip0_136_17">
<rect width="48" height="48" fill="white"/>
</clipPath>
</defs>
</svg>
