<svg width="48" height="48" viewBox="0 0 48 48" fill="none" xmlns="http://www.w3.org/2000/svg">
<path d="M45.6 3.31034H31.2V2.48276C31.2 1.07586 30.16 0 28.8 0H20.8C19.04 0 18.4 1.48966 18.4 2.48276V6.62069C18.4 7.94483 19.44 9.10345 20.8 9.10345H22.08L23.92 11.0069L7.92 14.1517C7.92 14.1517 5.84 14.5655 4.24 16.7172C4.16 16.7172 4.08 16.7172 4 16.7172C2.64 16.9655 0 18.6207 0 23.2552C0 27.8897 2.56 29.5448 4 29.7931C4.08 29.7931 4.08 29.7931 4.16 29.7931H4.24C4.96 30.7862 5.84 31.4483 6.48 31.7793C6.48 31.8621 6.56 31.9448 6.64 32.0276L17.84 46.9241C17.92 47.0069 18 47.0897 18.08 47.0897C18.72 47.669 19.6 48 20.48 48C22.48 48 24.08 46.3448 24.08 44.2759C24.08 43.3655 23.76 42.5379 23.2 41.7931C23.2 41.7103 23.12 41.7103 23.12 41.6276L17.04 34.0138L33.52 37.2414C33.6 37.2414 33.6 37.2414 33.68 37.2414C33.76 37.2414 33.76 37.2414 33.84 37.2414C33.92 37.2414 34 37.2414 34.08 37.2414C37.92 37.2414 40.88 31.0345 40.88 23.1724C40.88 21.4345 40.72 19.6966 40.48 18.2069L42.08 16.5517H45.6C46.88 16.5517 48 15.4759 48 14.069V5.7931C48 4.8 47.36 3.31034 45.6 3.31034ZM29.44 28.9655C29.04 27.3103 28.8 25.3241 28.8 23.1724C28.8 21.0207 29.04 19.0345 29.44 17.3793C29.52 17.3793 29.52 17.3793 29.6 17.3793C31.36 17.3793 32.8 20.0276 32.8 23.1724C32.8 26.3172 31.36 28.9655 29.6 28.9655C29.52 28.9655 29.52 28.9655 29.44 28.9655ZM22.4 7.44828H20.8C20.4 7.44828 20 7.11724 20 6.62069V2.48276C20 2.06897 20.16 1.65517 20.8 1.65517H28.8C29.28 1.65517 29.6 1.98621 29.6 2.48276V6.62069C29.6 7.11724 29.28 7.44828 28.8 7.44828H26.4C25.92 7.44828 25.6 7.77931 25.6 8.27586V10.4276L22.96 7.69655C22.8 7.53103 22.64 7.44828 22.4 7.44828ZM27.2 9.10345H28.8V10.0138L27.2 10.3448V9.10345ZM25.84 12.9931C26 13.1586 26.16 13.2414 26.4 13.2414C26.48 13.2414 26.64 13.2414 26.72 13.1586C27.04 12.9931 27.2 12.7448 27.2 12.4138V12L28.8 11.669V13.9862C27.84 16.3862 27.2 19.6138 27.2 23.0897C27.2 28.0552 28.4 32.3586 30.24 34.8414L14.72 31.8621C13.52 29.5448 12.88 26.4 12.88 23.1724C12.88 19.9448 13.52 16.8 14.72 14.4828L25.28 12.4138L25.84 12.9931ZM1.6 23.1724C1.6 20.8552 2.32 19.6138 3.04 18.9517C2.64 20.1103 2.4 21.4345 2.4 23.1724C2.4 24.8276 2.64 26.2345 3.04 27.3103C2.32 26.731 1.6 25.4897 1.6 23.1724ZM4 23.1724C4 16.5517 8 15.7241 8.16 15.7241L12.72 14.8138C11.76 17.2138 11.2 20.1103 11.2 23.1724C11.2 26.2345 11.76 29.131 12.72 31.531L8.08 30.6207C8.08 30.6207 4 29.8759 4 23.1724ZM14.56 33.6L21.6 42.5379C21.6 42.6207 21.68 42.7035 21.76 42.7862C22.16 43.2 22.32 43.6966 22.32 44.2759C22.32 45.4345 21.44 46.3448 20.32 46.3448C19.76 46.3448 19.28 46.0966 18.88 45.7655L18.8 45.6828L8.96 32.4414L14.56 33.6ZM39.2 23.1724C39.2 30.6207 36.48 35.5862 34 35.5862C32.48 35.5862 30.88 33.7655 29.84 30.6207C32.4 30.3724 34.4 27.2276 34.4 23.1724C34.4 20.2759 33.36 17.7931 31.84 16.5517H36.8V19.8621C36.8 20.1931 36.96 20.5241 37.28 20.6069C37.36 20.6897 37.52 20.6897 37.6 20.6897C37.84 20.6897 38 20.6069 38.16 20.4414L38.96 19.6138C39.12 20.6897 39.2 21.931 39.2 23.1724ZM46.4 14.069C46.4 14.4828 46.08 14.8966 45.6 14.8966H41.6C41.36 14.8966 41.2 14.9793 41.04 15.1448L38.4 17.8759V15.7241C38.4 15.2276 38.08 14.8966 37.6 14.8966H31.2C30.72 14.8966 30.4 14.5655 30.4 14.069V8.44138C30.88 8.02759 31.2 7.36552 31.2 6.62069V4.96552H45.6C46.24 4.96552 46.4 5.37931 46.4 5.7931V14.069Z" fill="#00C3D1"/>
</svg>
