<svg width="48" height="48" viewBox="0 0 48 48" fill="none" xmlns="http://www.w3.org/2000/svg">
<path d="M6.37296 14.2617C6.83562 14.2617 7.34903 14.0888 7.34903 13.758V9.47543L10.1144 13.7805H10.1065C10.3209 14.1037 10.6477 14.2613 11.1455 14.2613C11.6082 14.2613 12.0572 14.0883 12.0572 13.7575V6.52681C12.0572 6.18662 11.602 6.03435 11.1385 6.03435C10.709 6.03435 10.2198 6.16334 10.2198 6.52681V10.804L7.73694 6.82735C7.30632 6.14898 6.99386 6.03435 6.35516 6.03435C5.89169 6.03435 5.39688 6.19014 5.39688 6.53812V13.7583C5.39688 14.1042 5.92511 14.2617 6.37296 14.2617ZM15.7537 14.2575H20.5386C20.9567 14.2575 21.1472 13.9262 21.1472 13.6032C21.1472 13.1954 20.897 12.9268 20.5386 12.9268H16.7653V10.7406H18.7779C19.1774 10.7406 19.3865 10.4339 19.3865 10.1339C19.3865 9.82284 19.1775 9.50499 18.7779 9.50499H16.7653V7.4139H20.5386C20.8969 7.4139 21.1472 7.09777 21.1472 6.68991C21.1472 6.36674 20.9568 5.98816 20.5386 5.98816H15.7537C15.3571 5.98816 14.928 6.19195 14.928 6.53802V13.7582C14.928 14.1042 15.3571 14.2575 15.7537 14.2575ZM25.4031 13.8051C25.5431 14.1914 26.1356 14.3286 26.6005 14.3286C27.1099 14.3286 27.6696 14.1658 27.7718 13.8026L28.5891 10.9922L29.3939 13.8023C29.4962 14.1658 30.056 14.3286 30.5652 14.3286C31.0422 14.3286 31.6071 14.1914 31.7621 13.8065L34.4233 6.80891C34.4419 6.76088 34.4519 6.71087 34.4532 6.66045C34.4532 6.30781 33.8225 6.03435 33.2802 6.03435C32.9382 6.03435 32.7132 6.14965 32.6471 6.35752L30.5834 12.2169L29.4925 8.518C29.3991 8.1955 28.9479 8.08077 28.59 8.08077C28.2084 8.08077 27.7674 8.1955 27.674 8.51752L26.5824 12.2166L24.519 6.35885C24.4525 6.14975 24.2276 6.03416 23.8856 6.03416C23.3431 6.03416 22.7126 6.30762 22.7126 6.66026C22.7138 6.71038 22.7238 6.76009 22.7421 6.80787L25.4031 13.8051ZM39.2352 12.9648C38.417 12.9648 37.972 12.6551 37.6135 12.4062C37.3838 12.2463 37.1849 12.1082 36.9502 12.1082C36.4956 12.1082 36.1266 12.6082 36.1266 12.9345C36.1266 13.6081 37.479 14.3615 39.2889 14.3615C41.2974 14.3615 42.5452 13.4183 42.5452 11.8998C42.5452 10.1653 41.0064 9.62495 39.7703 9.19085C38.9442 8.90076 38.2307 8.65021 38.2307 8.11746C38.2307 7.60324 38.7634 7.3084 39.6921 7.3084C40.1653 7.29973 40.6325 7.39714 41.0442 7.59032C41.1958 7.66973 41.3681 7.71799 41.5468 7.73108C42.0751 7.73108 42.3031 7.19139 42.3031 6.91603C42.3031 6.17598 40.6619 5.97847 39.6921 5.97847C38.0855 5.97847 36.3686 6.57547 36.3686 8.251C36.3686 9.75022 37.7276 10.2498 38.9267 10.6905C39.8691 11.037 40.683 11.3361 40.683 12.0446C40.683 12.7235 39.9351 12.9648 39.2352 12.9648Z" fill="#00C3D1"/>
<path d="M48 0.760396C48 0.558726 47.9032 0.365317 47.7309 0.222715C47.5586 0.0801129 47.325 0 47.0813 0H0.91866C0.675016 0 0.441352 0.0801129 0.26907 0.222715C0.0967873 0.365317 0 0.558726 0 0.760396V47.2396C0 47.4413 0.0967873 47.6347 0.26907 47.7773C0.441352 47.9199 0.675016 48 0.91866 48H47.0813C47.325 48 47.5586 47.9199 47.7309 47.7773C47.9032 47.6347 48 47.4413 48 47.2396V0.760396ZM46.1627 46.3842H1.83732V1.52079H46.1627V46.3842Z" fill="#00C3D1"/>
<path d="M4.37063 19.2H42.4808C42.7244 19.2 42.9581 19.1199 43.1304 18.9773C43.3027 18.8347 43.3994 18.6413 43.3994 18.4396C43.3994 18.2379 43.3027 18.0445 43.1304 17.9019C42.9581 17.7593 42.7244 17.6792 42.4808 17.6792H4.37063C4.12698 17.6792 3.89332 17.7593 3.72103 17.9019C3.54875 18.0445 3.45197 18.2379 3.45197 18.4396C3.45197 18.6413 3.54875 18.8347 3.72103 18.9773C3.89332 19.1199 4.12698 19.2 4.37063 19.2ZM4.37063 22.7168H42.4808C42.7244 22.7168 42.9581 22.6367 43.1304 22.4941C43.3027 22.3515 43.3994 22.1581 43.3994 21.9564C43.3994 21.7548 43.3027 21.5613 43.1304 21.4187C42.9581 21.2761 42.7244 21.196 42.4808 21.196H4.37063C4.12698 21.196 3.89332 21.2761 3.72103 21.4187C3.54875 21.5613 3.45197 21.7548 3.45197 21.9564C3.45197 22.1581 3.54875 22.3515 3.72103 22.4941C3.89332 22.6367 4.12698 22.7168 4.37063 22.7168ZM4.37063 26.2337H42.4808C42.7244 26.2337 42.9581 26.1535 43.1304 26.0109C43.3027 25.8683 43.3994 25.6749 43.3994 25.4733C43.3994 25.2716 43.3027 25.0782 43.1304 24.9356C42.9581 24.793 42.7244 24.7129 42.4808 24.7129H4.37063C4.12698 24.7129 3.89332 24.793 3.72103 24.9356C3.54875 25.0782 3.45197 25.2716 3.45197 25.4733C3.45197 25.6749 3.54875 25.8683 3.72103 26.0109C3.89332 26.1535 4.12698 26.2337 4.37063 26.2337ZM4.37063 29.7505H19.5143C19.7579 29.7505 19.9916 29.6704 20.1639 29.5278C20.3362 29.3852 20.4329 29.1918 20.4329 28.9901C20.4329 28.7884 20.3362 28.595 20.1639 28.4524C19.9916 28.3098 19.7579 28.2297 19.5143 28.2297H4.37063C4.12698 28.2297 3.89332 28.3098 3.72103 28.4524C3.54875 28.595 3.45197 28.7884 3.45197 28.9901C3.45197 29.1918 3.54875 29.3852 3.72103 29.5278C3.89332 29.6704 4.12698 29.7505 4.37063 29.7505ZM4.37063 33.2673H19.5143C19.7579 33.2673 19.9916 33.1872 20.1639 33.0446C20.3362 32.902 20.4329 32.7086 20.4329 32.5069C20.4329 32.3053 20.3362 32.1118 20.1639 31.9692C19.9916 31.8266 19.7579 31.7465 19.5143 31.7465H4.37063C4.12698 31.7465 3.89332 31.8266 3.72103 31.9692C3.54875 32.1118 3.45197 32.3053 3.45197 32.5069C3.45197 32.7086 3.54875 32.902 3.72103 33.0446C3.89332 33.1872 4.12698 33.2673 4.37063 33.2673ZM4.37063 36.8792H19.5143C19.7579 36.8792 19.9916 36.7991 20.1639 36.6565C20.3362 36.5139 20.4329 36.3205 20.4329 36.1188C20.4329 35.9171 20.3362 35.7237 20.1639 35.5811C19.9916 35.4385 19.7579 35.3584 19.5143 35.3584H4.37063C4.12698 35.3584 3.89332 35.4385 3.72103 35.5811C3.54875 35.7237 3.45197 35.9171 3.45197 36.1188C3.45197 36.3205 3.54875 36.5139 3.72103 36.6565C3.89332 36.7991 4.12698 36.8792 4.37063 36.8792ZM4.37063 40.396H19.5143C19.7579 40.396 19.9916 40.3159 20.1639 40.1733C20.3362 40.0307 20.4329 39.8373 20.4329 39.6356C20.4329 39.434 20.3362 39.2406 20.1639 39.098C19.9916 38.9554 19.7579 38.8752 19.5143 38.8752H4.37063C4.12698 38.8752 3.89332 38.9554 3.72103 39.098C3.54875 39.2406 3.45197 39.434 3.45197 39.6356C3.45197 39.8373 3.54875 40.0307 3.72103 40.1733C3.89332 40.3159 4.12698 40.396 4.37063 40.396ZM4.37063 43.9129H19.5143C19.7579 43.9129 19.9916 43.8328 20.1639 43.6901C20.3362 43.5475 20.4329 43.3541 20.4329 43.1525C20.4329 42.9508 20.3362 42.7574 20.1639 42.6148C19.9916 42.4722 19.7579 42.3921 19.5143 42.3921H4.37063C4.12698 42.3921 3.89332 42.4722 3.72103 42.6148C3.54875 42.7574 3.45197 42.9508 3.45197 43.1525C3.45197 43.3541 3.54875 43.5475 3.72103 43.6901C3.89332 43.8328 4.12698 43.9129 4.37063 43.9129ZM32.8939 34.503H31.1551C30.3788 34.5049 29.6106 34.6333 28.8943 34.8811C28.178 35.1288 27.5278 35.4909 26.9806 35.9467C26.4334 36.4025 26.0001 36.943 25.7054 37.5375C25.4107 38.1319 25.2604 38.7686 25.263 39.4111V43.9004C25.2595 43.9997 25.2798 44.0985 25.3227 44.1912C25.3657 44.2839 25.4304 44.3687 25.5131 44.4406C25.5959 44.5124 25.6951 44.57 25.8049 44.61C25.9147 44.6499 26.033 44.6714 26.153 44.6733H37.8687C38.1166 44.6713 38.3538 44.5895 38.5301 44.4452C38.7064 44.301 38.808 44.1056 38.8133 43.9004V39.426C38.811 38.1249 38.1876 36.8773 37.0787 35.9552C35.9699 35.033 34.4657 34.511 32.8939 34.503ZM36.9759 43.1525H27.1003V39.4124C27.0946 38.519 27.5175 37.6603 28.2762 37.0249C29.0349 36.3896 30.0673 36.0295 31.1466 36.0238H32.883C33.9691 36.0294 35.0086 36.39 35.7752 37.0269C36.5417 37.6639 36.9733 38.5257 36.9759 39.4247V43.1525ZM32.0113 34.3129H32.0144C33.1565 34.3123 34.2515 33.9363 35.0586 33.2674C35.8657 32.5986 36.3188 31.6918 36.3181 30.7465C36.3175 29.8011 35.8632 28.8947 35.0551 28.2267C34.2471 27.5586 33.1515 27.1836 32.0094 27.1842H32.0074C31.4419 27.1843 30.8819 27.2766 30.3595 27.4558C29.8371 27.635 29.3625 27.8976 28.9627 28.2287C28.5629 28.5598 28.2458 28.9527 28.0295 29.3852C27.8133 29.8177 27.702 30.2812 27.7021 30.7493C27.7023 31.2174 27.8138 31.6809 28.0303 32.1133C28.2468 32.5457 28.5641 32.9386 28.9641 33.2695C29.364 33.6004 29.8388 33.8628 30.3613 34.0419C30.8838 34.2209 31.4438 34.313 32.0093 34.3129H32.0113ZM29.5362 30.7485C29.5365 30.4798 29.6008 30.2137 29.7253 29.9656C29.8499 29.7174 30.0323 29.492 30.2622 29.3023C30.4921 29.1125 30.7648 28.962 31.0649 28.8596C31.3651 28.7571 31.6866 28.7045 32.0113 28.7049H32.0123C32.6671 28.7048 33.2952 28.9199 33.7583 29.303C34.2215 29.6861 34.4818 30.2059 34.482 30.7478C34.4822 31.2898 34.2223 31.8097 33.7595 32.1931C33.2966 32.5764 32.6687 32.7919 32.0139 32.7921H32.0093C31.354 32.7924 30.7254 32.5773 30.2616 32.1941C29.7979 31.8109 29.5369 31.2909 29.5362 30.7485Z" fill="#00C3D1"/>
</svg>
