<svg width="48" height="48" viewBox="0 0 48 48" fill="none" xmlns="http://www.w3.org/2000/svg">
<path d="M45.5385 0H2.46154C1.10207 0 0 1.43269 0 3.2V44.8C0 46.5673 1.10207 48 2.46154 48H45.5385C46.8979 48 48 46.5673 48 44.8V3.2C48 1.43269 46.8979 0 45.5385 0Z" fill="#00C3D1"/>
<path d="M45.5385 43.2C45.5385 43.6243 45.4088 44.0313 45.178 44.3314C44.9472 44.6314 44.6341 44.8 44.3077 44.8H3.6923C3.36588 44.8 3.05283 44.6314 2.82202 44.3314C2.5912 44.0313 2.46153 43.6243 2.46153 43.2V10.4H45.5385V43.2Z" fill="#00393D"/>
<path d="M3.82769 7.368C4.60939 7.368 5.24308 6.54421 5.24308 5.528C5.24308 4.5118 4.60939 3.688 3.82769 3.688C3.046 3.688 2.41231 4.5118 2.41231 5.528C2.41231 6.54421 3.046 7.368 3.82769 7.368Z" fill="#CE422C"/>
<path d="M7.52 7.368C8.30169 7.368 8.93538 6.54421 8.93538 5.528C8.93538 4.5118 8.30169 3.688 7.52 3.688C6.7383 3.688 6.10461 4.5118 6.10461 5.528C6.10461 6.54421 6.7383 7.368 7.52 7.368Z" fill="#E17B3B"/>
<path d="M11.2123 7.368C11.994 7.368 12.6277 6.54421 12.6277 5.528C12.6277 4.5118 11.994 3.688 11.2123 3.688C10.4306 3.688 9.79692 4.5118 9.79692 5.528C9.79692 6.54421 10.4306 7.368 11.2123 7.368Z" fill="#30917A"/>
<path d="M4.30769 13.6H17.8462V16H4.30769V13.6Z" fill="#94A5A6"/>
<path d="M4.30769 19.2H30.1538V21.6H4.30769V19.2Z" fill="#00C3D1"/>
<path d="M4.30769 24H30.1538V26.4H4.30769V24Z" fill="#00C3D1"/>
<path d="M4.30769 28.8H30.1538V31.2H4.30769V28.8Z" fill="#00C3D1"/>
<path d="M4.30769 33.6H30.1538V36H4.30769V33.6Z" fill="#00C3D1"/>
<path d="M4.30769 38.4H30.1538V40.8H4.30769V38.4Z" fill="#00C3D1"/>
<path d="M32 19.2H43.6923V40.8H32V19.2Z" fill="#00C3D1"/>
</svg>
