<svg width="48" height="48" viewBox="0 0 48 48" fill="none" xmlns="http://www.w3.org/2000/svg">
<path d="M20.8372 29.2582C19.8999 26.4007 19.2174 23.4516 19.5281 21.6485C19.5281 21.628 19.5332 21.6127 19.5383 21.5924C19.5791 21.3683 19.3397 21.1798 19.1207 21.2716C18.647 21.4753 18.209 21.7554 17.8167 22.0916C16.3498 23.3446 15.4991 25.3719 15.4635 27.2719C15.4533 27.5622 15.7386 27.7659 16.0798 27.7404L18.7743 27.557L17.0985 29.2582H20.8372V29.2582Z" fill="#66FFF0"/>
<path d="M16.1663 28.7539C15.1293 28.5839 14.4174 28.2921 14.4447 27.2411C14.4753 25.5704 15.056 23.8946 16.0085 22.5704C13.4515 23.2375 11.2613 23.6655 11.078 23.6655C8.74003 24.5671 7.71113 26.4772 7.71113 28.3107V29.2582H15.6622C15.8709 29.0392 16.0798 28.8761 16.1663 28.7539ZM26.0835 29.2582C26.8577 26.9661 27.4537 24.6435 27.5249 22.9625C25.5843 24.944 22.4161 24.949 20.4755 22.9625C20.5417 24.6435 21.1427 26.9711 21.9118 29.2582H26.0835ZM33.5558 27.2513C33.5836 28.2943 32.8594 28.5863 31.8341 28.7539C31.9208 28.8812 32.1245 29.0442 32.3332 29.2582H40.2893V28.3058C40.2893 26.1919 38.9395 24.3379 36.9327 23.6655C36.8919 23.6553 34.2026 22.9882 31.8748 22.4074C32.9037 23.7571 33.5252 25.4941 33.5558 27.2513Z" fill="#66FFF0"/>
<path d="M32.537 27.2717C32.5013 25.3259 31.61 23.2375 30.0717 21.9947C29.705 21.7044 29.3128 21.4548 28.8799 21.2714C28.6609 21.1796 28.4214 21.3682 28.4622 21.5922C28.4673 21.6127 28.4724 21.633 28.4775 21.6585C28.7781 23.4616 28.0955 26.4057 27.1582 29.2581H30.902L29.2262 27.5568L31.9207 27.7402C32.2619 27.7657 32.5472 27.562 32.537 27.2717ZM17.4142 14.4022C17.5195 14.6941 16.9527 16.7368 20.5366 20.5705C22.4066 22.5679 25.6069 22.5648 27.474 20.5705C31.068 16.726 30.4941 14.6991 30.6014 14.4022C31.7416 14.4022 32.3384 13.0327 31.5386 12.1966C32.211 10.7093 32.593 9.09984 32.593 7.55634C32.593 2.67684 28.7474 0.379593 24.0002 0.379593C19.2632 0.379593 15.4176 2.67675 15.4176 7.55634C15.4176 9.09984 15.7996 10.7093 16.4719 12.1966C15.6718 13.0332 16.2705 14.4022 17.4142 14.4022ZM42.4823 30.2769H5.51766C4.54266 30.2769 3.86184 31.2427 4.18959 32.161L9.37256 46.6842C9.57291 47.2456 10.1046 47.6203 10.7006 47.6203H37.2994C37.8954 47.6203 38.4271 47.2455 38.6274 46.6842L43.8104 32.161C44.1382 31.2428 43.4573 30.2769 42.4823 30.2769ZM24.0002 41.532C22.2441 41.532 20.8193 40.6829 20.8193 39.6308C20.8193 38.5788 22.2441 37.7257 24.0002 37.7257C25.7563 37.7257 27.181 38.5788 27.181 39.6308C27.181 40.6829 25.7563 41.532 24.0002 41.532Z" fill="#66FFF0"/>
</svg>
